<mxfile host="Electron" agent="Mozilla/5.0 (Windows NT 10.0; Win64; x64) AppleWebKit/537.36 (KHTML, like Gecko) draw.io/26.0.16 Chrome/132.0.6834.196 Electron/34.2.0 Safari/537.36" version="26.0.16">
  <diagram name="Pagina-1" id="hnuvUjYtpCe2AVrizgu8">
    <mxGraphModel dx="1290" dy="621" grid="1" gridSize="10" guides="1" tooltips="1" connect="1" arrows="1" fold="1" page="1" pageScale="1" pageWidth="827" pageHeight="1169" math="0" shadow="0">
      <root>
        <mxCell id="0" />
        <mxCell id="1" parent="0" />
        <mxCell id="qBlDC1ZJHtbCeDPX45Zv-1" value="Mosquitto Broker" style="rounded=1;whiteSpace=wrap;html=1;" vertex="1" parent="1">
          <mxGeometry x="150" y="60" width="150" height="60" as="geometry" />
        </mxCell>
        <mxCell id="qBlDC1ZJHtbCeDPX45Zv-2" value="Nginx" style="rounded=1;whiteSpace=wrap;html=1;" vertex="1" parent="1">
          <mxGeometry x="450" y="60" width="160" height="60" as="geometry" />
        </mxCell>
        <mxCell id="qBlDC1ZJHtbCeDPX45Zv-9" style="edgeStyle=orthogonalEdgeStyle;rounded=0;orthogonalLoop=1;jettySize=auto;html=1;entryX=0;entryY=0.5;entryDx=0;entryDy=0;" edge="1" parent="1" source="qBlDC1ZJHtbCeDPX45Zv-4" target="qBlDC1ZJHtbCeDPX45Zv-1">
          <mxGeometry relative="1" as="geometry">
            <mxPoint x="110" y="390" as="targetPoint" />
            <Array as="points">
              <mxPoint x="225" y="490" />
              <mxPoint x="111" y="490" />
              <mxPoint x="111" y="90" />
            </Array>
          </mxGeometry>
        </mxCell>
        <mxCell id="qBlDC1ZJHtbCeDPX45Zv-30" style="edgeStyle=orthogonalEdgeStyle;rounded=0;orthogonalLoop=1;jettySize=auto;html=1;exitX=0.5;exitY=0;exitDx=0;exitDy=0;entryX=0.5;entryY=1;entryDx=0;entryDy=0;" edge="1" parent="1" source="qBlDC1ZJHtbCeDPX45Zv-4" target="qBlDC1ZJHtbCeDPX45Zv-1">
          <mxGeometry relative="1" as="geometry">
            <Array as="points">
              <mxPoint x="225" y="280" />
              <mxPoint x="225" y="280" />
            </Array>
          </mxGeometry>
        </mxCell>
        <mxCell id="qBlDC1ZJHtbCeDPX45Zv-4" value="New Client" style="rounded=1;whiteSpace=wrap;html=1;" vertex="1" parent="1">
          <mxGeometry x="165" y="410" width="120" height="60" as="geometry" />
        </mxCell>
        <mxCell id="qBlDC1ZJHtbCeDPX45Zv-12" value="&lt;b&gt;&lt;font style=&quot;font-size: 14px;&quot;&gt;Port&amp;nbsp; 1884&lt;/font&gt;&lt;/b&gt;" style="text;html=1;align=center;verticalAlign=middle;whiteSpace=wrap;rounded=0;rotation=-90;" vertex="1" parent="1">
          <mxGeometry x="60" y="230" width="70" height="30" as="geometry" />
        </mxCell>
        <mxCell id="qBlDC1ZJHtbCeDPX45Zv-17" value="&lt;b&gt;&lt;font style=&quot;font-size: 14px;&quot;&gt;Https: Port 443&lt;/font&gt;&lt;/b&gt;" style="text;html=1;align=center;verticalAlign=middle;whiteSpace=wrap;rounded=0;rotation=0;" vertex="1" parent="1">
          <mxGeometry x="360" y="410" width="110" height="30" as="geometry" />
        </mxCell>
        <mxCell id="qBlDC1ZJHtbCeDPX45Zv-18" style="edgeStyle=orthogonalEdgeStyle;rounded=0;orthogonalLoop=1;jettySize=auto;html=1;entryX=0.71;entryY=1.08;entryDx=0;entryDy=0;entryPerimeter=0;" edge="1" parent="1" source="qBlDC1ZJHtbCeDPX45Zv-4" target="qBlDC1ZJHtbCeDPX45Zv-2">
          <mxGeometry relative="1" as="geometry">
            <Array as="points">
              <mxPoint x="564" y="270" />
              <mxPoint x="564" y="270" />
            </Array>
          </mxGeometry>
        </mxCell>
        <mxCell id="qBlDC1ZJHtbCeDPX45Zv-20" value="&lt;b&gt;&lt;font style=&quot;font-size: 14px;&quot;&gt;MQTT over WebSockets with SSL&lt;/font&gt;&lt;/b&gt;" style="text;whiteSpace=wrap;html=1;rotation=-90;" vertex="1" parent="1">
          <mxGeometry x="20" y="280" width="230" height="40" as="geometry" />
        </mxCell>
        <mxCell id="qBlDC1ZJHtbCeDPX45Zv-25" value="&lt;span style=&quot;font-size: 14px;&quot;&gt;&lt;b&gt;Subscribe Topic &amp;amp; Publish Topic&lt;/b&gt;&lt;/span&gt;" style="text;whiteSpace=wrap;html=1;rotation=-90;" vertex="1" parent="1">
          <mxGeometry x="130" y="260" width="230" height="40" as="geometry" />
        </mxCell>
        <mxCell id="qBlDC1ZJHtbCeDPX45Zv-31" value="&lt;b&gt;&lt;font style=&quot;font-size: 14px;&quot;&gt;Https: Port 80 redirect to 443&lt;/font&gt;&lt;/b&gt;" style="text;html=1;align=center;verticalAlign=middle;whiteSpace=wrap;rounded=0;rotation=-90;" vertex="1" parent="1">
          <mxGeometry x="440" y="270" width="200" height="30" as="geometry" />
        </mxCell>
        <mxCell id="qBlDC1ZJHtbCeDPX45Zv-32" value="" style="endArrow=none;dashed=1;html=1;dashPattern=1 3;strokeWidth=2;rounded=0;" edge="1" parent="1">
          <mxGeometry width="50" height="50" relative="1" as="geometry">
            <mxPoint x="70" y="40" as="sourcePoint" />
            <mxPoint x="640" y="40" as="targetPoint" />
          </mxGeometry>
        </mxCell>
        <mxCell id="qBlDC1ZJHtbCeDPX45Zv-37" value="&lt;font style=&quot;font-size: 36px;&quot;&gt;&lt;b style=&quot;&quot;&gt;Docker&lt;/b&gt;&lt;/font&gt;" style="edgeLabel;html=1;align=center;verticalAlign=middle;resizable=0;points=[];" vertex="1" connectable="0" parent="qBlDC1ZJHtbCeDPX45Zv-32">
          <mxGeometry x="-0.0702" y="4" relative="1" as="geometry">
            <mxPoint x="35" as="offset" />
          </mxGeometry>
        </mxCell>
        <mxCell id="qBlDC1ZJHtbCeDPX45Zv-34" value="" style="endArrow=none;dashed=1;html=1;dashPattern=1 3;strokeWidth=2;rounded=0;" edge="1" parent="1">
          <mxGeometry width="50" height="50" relative="1" as="geometry">
            <mxPoint x="640" y="210" as="sourcePoint" />
            <mxPoint x="640" y="40" as="targetPoint" />
          </mxGeometry>
        </mxCell>
        <mxCell id="qBlDC1ZJHtbCeDPX45Zv-35" value="" style="endArrow=none;dashed=1;html=1;dashPattern=1 3;strokeWidth=2;rounded=0;" edge="1" parent="1">
          <mxGeometry width="50" height="50" relative="1" as="geometry">
            <mxPoint x="70" y="210" as="sourcePoint" />
            <mxPoint x="640" y="210" as="targetPoint" />
          </mxGeometry>
        </mxCell>
        <mxCell id="qBlDC1ZJHtbCeDPX45Zv-36" value="" style="endArrow=none;dashed=1;html=1;dashPattern=1 3;strokeWidth=2;rounded=0;" edge="1" parent="1">
          <mxGeometry width="50" height="50" relative="1" as="geometry">
            <mxPoint x="70" y="210" as="sourcePoint" />
            <mxPoint x="70" y="40" as="targetPoint" />
          </mxGeometry>
        </mxCell>
        <mxCell id="qBlDC1ZJHtbCeDPX45Zv-39" value="" style="endArrow=none;dashed=1;html=1;rounded=0;" edge="1" parent="1">
          <mxGeometry width="50" height="50" relative="1" as="geometry">
            <mxPoint x="40" y="530" as="sourcePoint" />
            <mxPoint x="770" y="530" as="targetPoint" />
          </mxGeometry>
        </mxCell>
        <mxCell id="qBlDC1ZJHtbCeDPX45Zv-44" value="&lt;font style=&quot;font-size: 36px;&quot;&gt;&lt;b&gt;GUI&lt;/b&gt;&lt;/font&gt;" style="edgeLabel;html=1;align=center;verticalAlign=middle;resizable=0;points=[];" vertex="1" connectable="0" parent="qBlDC1ZJHtbCeDPX45Zv-39">
          <mxGeometry x="0.0027" y="4" relative="1" as="geometry">
            <mxPoint as="offset" />
          </mxGeometry>
        </mxCell>
        <mxCell id="qBlDC1ZJHtbCeDPX45Zv-41" value="" style="endArrow=none;dashed=1;html=1;rounded=0;" edge="1" parent="1">
          <mxGeometry width="50" height="50" relative="1" as="geometry">
            <mxPoint x="770" y="530" as="sourcePoint" />
            <mxPoint x="770" y="10" as="targetPoint" />
          </mxGeometry>
        </mxCell>
        <mxCell id="qBlDC1ZJHtbCeDPX45Zv-42" value="" style="endArrow=none;dashed=1;html=1;rounded=0;" edge="1" parent="1">
          <mxGeometry width="50" height="50" relative="1" as="geometry">
            <mxPoint x="40" y="530" as="sourcePoint" />
            <mxPoint x="40" y="10" as="targetPoint" />
          </mxGeometry>
        </mxCell>
        <mxCell id="qBlDC1ZJHtbCeDPX45Zv-43" value="" style="endArrow=none;dashed=1;html=1;rounded=0;" edge="1" parent="1">
          <mxGeometry width="50" height="50" relative="1" as="geometry">
            <mxPoint x="40" y="10" as="sourcePoint" />
            <mxPoint x="770" y="10" as="targetPoint" />
          </mxGeometry>
        </mxCell>
      </root>
    </mxGraphModel>
  </diagram>
</mxfile>
